<?xml version="1.0" encoding="iso-8859-1"?>
<!-- Generator: Adobe Illustrator 19.0.0, SVG Export Plug-In . SVG Version: 6.00 Build 0)  -->
<svg xmlns="http://www.w3.org/2000/svg" xmlns:xlink="http://www.w3.org/1999/xlink" version="1.1" id="Capa_1" x="0px" y="0px" viewBox="0 0 512 512" style="enable-background:new 0 0 512 512;" xml:space="preserve">
<g>
	<g>
		<path fill="#ffffff" d="M499.952,30.294c-0.004-0.001-0.007-0.002-0.011-0.003l-150-30C345.536-0.59,340.965,0.55,337.49,3.4    C334.015,6.249,332,10.506,332,15v15H137c-8.284,0-15,6.716-15,15v75H45c-24.813,0-45,20.187-45,45v30c0,8.529,0,77.68,0,90    c0,24.813,20.187,45,45,45h77v137c0,8.284,6.716,15,15,15h195v15c0,4.494,2.015,8.751,5.49,11.6    c3.481,2.853,8.052,3.988,12.451,3.109l150-30c0.004-0.001,0.007-0.002,0.011-0.003C506.902,480.319,512,474.124,512,467V45    C512,37.802,506.836,31.668,499.952,30.294z M45,150h77v30H45c-8.271,0-15-6.729-15-15S36.729,150,45,150z M45,300    c-8.271,0-15-6.729-15-15c0-8.851,0-69.599,0-77.58c4.695,1.665,9.741,2.58,15,2.58c6.103,0,145.9,0,152,0    c6.433,0,11.919-4.049,14.051-9.736L265.787,255l-54.736,54.736C208.919,304.049,203.433,300,197,300H45z M332,452H152V330h30v15    c0,6.067,3.654,11.537,9.26,13.858c5.604,2.322,12.057,1.039,16.347-3.251l90-90c5.858-5.858,5.858-15.355,0-21.213l-90-90    c-4.289-4.291-10.743-5.573-16.347-3.252c-5.605,2.322-9.26,7.791-9.26,13.858v15h-30c0-4.977,0-114.271,0-120h180V452z     M482,454.703l-120,24V33.297l120,24V454.703z"/>
	</g>
</g>
<g>
	<g>
		<path fill="#ffffff" d="M407,210c-8.284,0-15,6.716-15,15v60c0,8.284,6.716,15,15,15s15-6.716,15-15v-60C422,216.716,415.284,210,407,210z"/>
	</g>
</g>
<g>
</g>
<g>
</g>
<g>
</g>
<g>
</g>
<g>
</g>
<g>
</g>
<g>
</g>
<g>
</g>
<g>
</g>
<g>
</g>
<g>
</g>
<g>
</g>
<g>
</g>
<g>
</g>
<g>
</g>
</svg>
