<?xml version="1.0" encoding="iso-8859-1"?>
<!-- Generator: Adobe Illustrator 19.0.0, SVG Export Plug-In . SVG Version: 6.00 Build 0)  -->
<svg xmlns="http://www.w3.org/2000/svg" xmlns:xlink="http://www.w3.org/1999/xlink" version="1.1" id="Capa_1" x="0px" y="0px" viewBox="0 0 512 512" style="enable-background:new 0 0 512 512;" xml:space="preserve">
<g>
	<g>
		<path fill="#ffffff" d="M500.539,211.423l-25.45-6.179c-5.597-24.374-15.079-47.306-28.282-68.396l12.975-21.624    c3.541-5.902,2.611-13.458-2.256-18.324L415.1,54.475c-4.867-4.867-12.422-5.797-18.324-2.256l-21.623,12.974    C354.062,51.99,331.13,42.507,306.756,36.91l-6.179-25.45C298.943,4.735,292.921,0,286,0h-60c-6.921,0-12.943,4.735-14.576,11.461    l-6.179,25.45c-24.374,5.597-47.307,15.08-68.397,28.283L115.225,52.22c-5.902-3.541-13.457-2.611-18.324,2.256L54.475,96.9    c-4.867,4.867-5.797,12.422-2.256,18.324l12.975,21.624c-13.203,21.09-22.686,44.022-28.283,68.396l-25.449,6.179    C4.735,213.057,0,219.079,0,226v60c0,6.921,4.735,12.943,11.461,14.577l25.449,6.179c5.598,24.374,15.08,47.307,28.283,68.396    l-12.975,21.624c-3.541,5.902-2.611,13.458,2.256,18.324L96.9,457.525c4.866,4.868,12.422,5.797,18.324,2.256l21.623-12.974    c21.091,13.203,44.023,22.686,68.397,28.283l6.179,25.45C213.057,507.265,219.079,512,226,512h60    c6.921,0,12.943-4.735,14.576-11.461l6.179-25.45c24.374-5.597,47.307-15.08,68.397-28.283l21.623,12.974    c5.901,3.542,13.457,2.611,18.324-2.256l42.426-42.425c4.867-4.867,5.797-12.422,2.256-18.324l-12.975-21.624    c13.203-21.09,22.686-44.022,28.282-68.396l25.45-6.179C507.265,298.943,512,292.921,512,286v-60    C512,219.079,507.265,213.057,500.539,211.423z M482,274.206l-23.209,5.635c-5.744,1.395-10.135,6.034-11.21,11.846    c-5.003,27.025-15.379,52.127-30.84,74.61c-3.329,4.841-3.525,11.179-0.503,16.217l11.793,19.653l-25.863,25.862l-19.653-11.792    c-5.039-3.022-11.378-2.825-16.217,0.503c-22.483,15.461-47.586,25.837-74.611,30.84c-5.813,1.076-10.451,5.466-11.846,11.21    L274.206,482h-36.412l-5.635-23.208c-1.395-5.745-6.033-10.134-11.846-11.21c-27.025-5.003-52.128-15.379-74.611-30.84    c-4.839-3.329-11.178-3.525-16.217-0.503l-19.653,11.792l-25.863-25.862l11.793-19.653c3.022-5.038,2.826-11.376-0.503-16.217    c-15.461-22.482-25.837-47.585-30.841-74.611c-1.076-5.813-5.466-10.451-11.21-11.846L30,274.206v-36.412l23.208-5.635    c5.744-1.395,10.134-6.033,11.21-11.846c5.004-27.026,15.38-52.128,30.841-74.611c3.329-4.841,3.525-11.179,0.503-16.217    l-11.793-19.653l25.863-25.862l19.653,11.792c5.039,3.023,11.378,2.826,16.217-0.503c22.483-15.461,47.586-25.837,74.611-30.84    c5.813-1.076,10.451-5.466,11.846-11.21L237.794,30h36.412l5.635,23.208c1.395,5.745,6.033,10.134,11.846,11.21    c27.025,5.003,52.128,15.379,74.611,30.84c4.839,3.33,11.178,3.526,16.217,0.503l19.653-11.792l25.863,25.862l-11.793,19.653    c-3.022,5.038-2.826,11.376,0.503,16.217c15.461,22.483,25.837,47.585,30.84,74.61c1.075,5.813,5.466,10.451,11.21,11.846    L482,237.794V274.206z"/>
	</g>
</g>
<g>
	<g>
		<path fill="#ffffff" d="M256,91c-90.981,0-165,74.019-165,165s74.019,165,165,165s165-74.019,165-165S346.981,91,256,91z M256,391    c-74.439,0-135-60.561-135-135s60.561-135,135-135s135,60.561,135,135S330.439,391,256,391z"/>
	</g>
</g>
<g>
	<g>
		<path fill="#ffffff" d="M256,151c-57.897,0-105,47.103-105,105c0,57.897,47.103,105,105,105c57.897,0,105-47.103,105-105    C361,198.103,313.897,151,256,151z M256,331c-41.355,0-75-33.645-75-75c0-41.355,33.645-75,75-75s75,33.645,75,75    S297.355,331,256,331z"/>
	</g>
</g>
<g>
</g>
<g>
</g>
<g>
</g>
<g>
</g>
<g>
</g>
<g>
</g>
<g>
</g>
<g>
</g>
<g>
</g>
<g>
</g>
<g>
</g>
<g>
</g>
<g>
</g>
<g>
</g>
<g>
</g>
</svg>
