<?xml version="1.0" encoding="iso-8859-1"?>
<!-- Generator: Adobe Illustrator 19.0.0, SVG Export Plug-In . SVG Version: 6.00 Build 0)  -->
<svg version="1.1" id="Capa_1" xmlns="http://www.w3.org/2000/svg" xmlns:xlink="http://www.w3.org/1999/xlink" x="0px" y="0px"
	 viewBox="0 0 512 512" style="enable-background:new 0 0 512 512;" xml:space="preserve">
<g>
	<g>
		<path fill="#ffffff" d="M195,270c-8.271,0-15-6.729-15-15c0-12.305,15.209-22.676,31.218-7.166c5.951,5.764,15.445,5.614,21.211-0.335
			c5.764-5.95,5.614-15.446-0.336-21.21c-6.772-6.561-14.3-11.198-22.093-13.815V195c0-8.284-6.716-15-15-15s-15,6.716-15,15v17.571
			c-0.851,0.303-1.699,0.623-2.54,0.979C160.778,220.615,150,236.885,150,255c0,24.813,20.187,45,45,45c8.271,0,15,6.729,15,15
			c0,12.924-17.172,24.258-34.473,3.658c-5.327-6.343-14.788-7.167-21.134-1.839c-6.344,5.328-7.167,14.79-1.839,21.134
			c8.109,9.654,17.549,16.275,27.445,19.608V375c0,8.284,6.716,15,15,15s15-6.716,15-15v-17.573
			c0.134-0.047,0.268-0.088,0.401-0.136C228.106,350.843,240,333.847,240,315C240,290.187,219.814,270,195,270z"/>
	</g>
</g>
<g>
	<g>
		<path fill="#ffffff" d="M467,0H45C20.187,0,0,20.187,0,45v60c0,24.813,20.187,45,45,45h45v317.001c0,3.979,1.58,7.794,4.394,10.607l30,29.999
			c5.857,5.857,15.355,5.858,21.213,0L165,488.213l19.394,19.393c5.857,5.858,15.355,5.858,21.213,0L225,488.213l19.394,19.393
			c5.725,5.726,14.962,5.872,20.865,0.336l21.404-20.066l19.73,19.73c5.857,5.858,15.355,5.858,21.213,0L347,488.213l19.394,19.393
			c5.857,5.858,15.355,5.858,21.213,0l30-30C420.42,474.793,422,470.979,422,467V150h45c24.813,0,45-20.187,45-45V45
			C512,20.187,491.814,0,467,0z M392,120h-15c-8.284,0-15,6.716-15,15s6.716,15,15,15h15v310.787l-15,15l-19.394-19.393
			c-5.857-5.858-15.355-5.858-21.213,0L317,475.787l-19.394-19.393c-5.725-5.726-14.961-5.873-20.865-0.336l-21.404,20.066
			l-19.73-19.73c-5.857-5.858-15.356-5.858-21.213,0L195,475.787l-19.394-19.393c-5.857-5.858-15.355-5.858-21.213,0L135,475.787
			l-15-15V150h15c8.284,0,15-6.716,15-15s-6.716-15-15-15h-15V90h272V120z M482,105c0,8.271-6.729,15-15,15h-45V90h15
			c8.284,0,15-6.716,15-15s-6.716-15-15-15c-18.289,0-350.195,0-362,0c-8.284,0-15,6.716-15,15s6.716,15,15,15h15v30H45
			c-8.271,0-15-6.729-15-15V45c0-8.271,6.729-15,15-15h422c8.271,0,15,6.729,15,15V105z"/>
	</g>
</g>
<g>
	<g>
		<path fill="#ffffff" d="M225,120h-30c-8.284,0-15,6.716-15,15s6.716,15,15,15h30c8.284,0,15-6.716,15-15S233.284,120,225,120z"/>
	</g>
</g>
<g>
	<g>
		<path fill="#ffffff" d="M317,120h-30c-8.284,0-15,6.716-15,15s6.716,15,15,15h30c8.284,0,15-6.716,15-15S325.284,120,317,120z"/>
	</g>
</g>
<g>
	<g>
		<path fill="#ffffff" d="M347,210h-60c-8.284,0-15,6.716-15,15s6.716,15,15,15h60c8.284,0,15-6.716,15-15S355.284,210,347,210z"/>
	</g>
</g>
<g>
	<g>
		<path fill="#ffffff" d="M347,270h-60c-8.284,0-15,6.716-15,15s6.716,15,15,15h60c8.284,0,15-6.716,15-15S355.284,270,347,270z"/>
	</g>
</g>
<g>
	<g>
		<path fill="#ffffff" d="M347,330h-60c-8.284,0-15,6.716-15,15s6.716,15,15,15h60c8.284,0,15-6.716,15-15S355.284,330,347,330z"/>
	</g>
</g>
<g>
</g>
<g>
</g>
<g>
</g>
<g>
</g>
<g>
</g>
<g>
</g>
<g>
</g>
<g>
</g>
<g>
</g>
<g>
</g>
<g>
</g>
<g>
</g>
<g>
</g>
<g>
</g>
<g>
</g>
</svg>
