<?xml version="1.0" encoding="iso-8859-1"?>
<!-- Generator: Adobe Illustrator 19.0.0, SVG Export Plug-In . SVG Version: 6.00 Build 0)  -->
<svg version="1.1" id="Capa_1" xmlns="http://www.w3.org/2000/svg" xmlns:xlink="http://www.w3.org/1999/xlink" x="0px" y="0px"
	 viewBox="0 0 512 512" style="enable-background:new 0 0 512 512;" xml:space="preserve">
<g>
	<g>
		<path fill="#ffffff" d="M257,0C117.105,0,0,113.025,0,255c0,138.4,111.875,257,255,257c140.862,0,257-116.169,257-257
			C512,114.061,397.951,0,257,0z M272,30.512C384.137,37.93,474.07,127.863,481.488,240H272V30.512z M29.8,255
			c0-119.069,93.999-216.815,212.2-224.496v218.283L86.048,404.739C51.181,364.745,29.8,312.324,29.8,255z M255,482.2
			c-56.521,0-108.235-21.341-147.798-56.189L257,276.213l148.535,148.534C365.441,460.344,312.706,482.2,255,482.2z
			 M426.628,403.414L293.213,269.9h188.279C478.16,320.72,458.045,367.132,426.628,403.414z"/>
	</g>
</g>
<g>
</g>
<g>
</g>
<g>
</g>
<g>
</g>
<g>
</g>
<g>
</g>
<g>
</g>
<g>
</g>
<g>
</g>
<g>
</g>
<g>
</g>
<g>
</g>
<g>
</g>
<g>
</g>
<g>
</g>
</svg>
