<?xml version="1.0" encoding="iso-8859-1"?>
<!-- Generator: Adobe Illustrator 19.0.0, SVG Export Plug-In . SVG Version: 6.00 Build 0)  -->
<svg version="1.1" id="Capa_1" xmlns="http://www.w3.org/2000/svg" xmlns:xlink="http://www.w3.org/1999/xlink" x="0px" y="0px"
	 viewBox="0 0 512 512" style="enable-background:new 0 0 512 512;" xml:space="preserve">
<g>
	<g>
		<path fill="#ffffff" d="M195,152c-8.271,0-15-6.729-15-15c0-12.279,15.191-22.694,31.218-7.166c5.95,5.764,15.446,5.614,21.21-0.335
			c5.765-5.95,5.614-15.446-0.335-21.21c-6.772-6.561-14.3-11.198-22.093-13.815V75c0-8.284-6.716-15-15-15s-15,6.716-15,15v19.572
			c-18.295,6.504-30,23.574-30,42.428c0,24.813,20.187,45,45,45c8.271,0,15,6.729,15,15c0,12.925-17.171,24.258-34.472,3.658
			c-5.328-6.343-14.789-7.167-21.133-1.839s-7.167,14.79-1.839,21.133c8.109,9.655,17.548,16.276,27.445,19.608V257
			c0,8.284,6.716,15,15,15s15-6.716,15-15v-17.573c0.134-0.047,0.268-0.088,0.401-0.136C228.105,232.843,240,215.847,240,197
			C240,172.187,219.813,152,195,152z"/>
	</g>
</g>
<g>
	<g>
		<path fill="#ffffff" d="M491.961,175.613L422,128.973V15c0-8.284-6.716-15-15-15H105c-8.284,0-15,6.716-15,15v114.891
			c-80.375,65.74-74.922,61.079-77.863,64.218c-0.076,0.084-0.157,0.165-0.231,0.25C4.285,202.612,0,213.412,0,224.832V467
			c0,24.799,20.193,45,45,45h422c24.826,0,45-20.224,45-45V213.056C512,197.976,504.509,183.979,491.961,175.613z M422,165.028
			l51.965,34.643L422,255.246V165.028z M120,30h272c0,11.709,0,247.178,0,257.329l-50.415,53.916
			c-23.976-19.25-54.145-29.793-85.585-29.793c-31.415,0-61.561,10.526-85.528,29.747L120,286.67C120,276.517,120,41.729,120,30z
			 M90,168.647v85.611l-45.098-48.724L90,168.647z M30,463.944V233.599L147.8,360.87L30,463.944z M54.922,482l130.935-114.568
			c39.333-34.416,100.953-34.416,140.286,0L457.078,482H54.922z M482,463.944L364.26,360.921L482,235.004V463.944z"/>
	</g>
</g>
<g>
	<g>
		<path fill="#ffffff" d="M347,92h-60c-8.284,0-15,6.716-15,15s6.716,15,15,15h60c8.284,0,15-6.716,15-15S355.284,92,347,92z"/>
	</g>
</g>
<g>
	<g>
		<path fill="#ffffff" d="M347,152h-60c-8.284,0-15,6.716-15,15s6.716,15,15,15h60c8.284,0,15-6.716,15-15S355.284,152,347,152z"/>
	</g>
</g>
<g>
	<g>
		<path fill="#ffffff" d="M347,212h-60c-8.284,0-15,6.716-15,15s6.716,15,15,15h60c8.284,0,15-6.716,15-15S355.284,212,347,212z"/>
	</g>
</g>
<g>
</g>
<g>
</g>
<g>
</g>
<g>
</g>
<g>
</g>
<g>
</g>
<g>
</g>
<g>
</g>
<g>
</g>
<g>
</g>
<g>
</g>
<g>
</g>
<g>
</g>
<g>
</g>
<g>
</g>
</svg>
