<?xml version="1.0" encoding="iso-8859-1"?>
<!-- Generator: Adobe Illustrator 19.0.0, SVG Export Plug-In . SVG Version: 6.00 Build 0)  -->
<svg version="1.1" id="Capa_1" xmlns="http://www.w3.org/2000/svg" xmlns:xlink="http://www.w3.org/1999/xlink" x="0px" y="0px"
	 viewBox="0 0 512 512" style="enable-background:new 0 0 512 512;" xml:space="preserve">
<g>
	<g>
		<path fill="#ffffff" d="M167,182h-60c-8.284,0-15,6.716-15,15v120c0,8.284,6.716,15,15,15h60c8.284,0,15-6.716,15-15V197
			C182,188.716,175.284,182,167,182z M152,302h-30v-30h30V302z M152,242h-30v-30h30V242z"/>
	</g>
</g>
<g>
	<g>
		<path fill="#ffffff" d="M287,152h-60c-8.284,0-15,6.716-15,15v150c0,8.284,6.716,15,15,15h60c8.284,0,15-6.716,15-15V167
			C302,158.716,295.284,152,287,152z M272,302h-30v-30h30V302z M272,242h-30v-60h30V242z"/>
	</g>
</g>
<g>
	<g>
		<path fill="#ffffff" d="M407,122h-60c-8.284,0-15,6.716-15,15v180c0,8.284,6.716,15,15,15h60c8.284,0,15-6.716,15-15V137
			C422,128.716,415.284,122,407,122z M392,302h-30v-30h30V302z M392,242h-30v-90h30V242z"/>
	</g>
</g>
<g>
	<g>
		<path fill="#ffffff" d="M467,0H45C20.187,0,0,20.187,0,45c0,19.555,12.541,36.228,30,42.42V377c0,8.284,6.716,15,15,15h197v32.58
			c-17.459,6.192-30,22.865-30,42.42c0,24.813,20.187,45,45,45s45-20.187,45-45c0-19.555-12.541-36.228-30-42.42V392h195
			c8.284,0,15-6.716,15-15V87.42c17.459-6.192,30-22.865,30-42.42C512,20.187,491.813,0,467,0z M257,482c-8.271,0-15-6.729-15-15
			s6.729-15,15-15s15,6.729,15,15S265.271,482,257,482z M452,362H60V90h392V362z M467,60H45c-8.271,0-15-6.729-15-15s6.729-15,15-15
			h422c8.271,0,15,6.729,15,15S475.271,60,467,60z"/>
	</g>
</g>
<g>
</g>
<g>
</g>
<g>
</g>
<g>
</g>
<g>
</g>
<g>
</g>
<g>
</g>
<g>
</g>
<g>
</g>
<g>
</g>
<g>
</g>
<g>
</g>
<g>
</g>
<g>
</g>
<g>
</g>
</svg>
