<?xml version="1.0" encoding="iso-8859-1"?>
<!-- Generator: Adobe Illustrator 19.0.0, SVG Export Plug-In . SVG Version: 6.00 Build 0)  -->
<svg xmlns="http://www.w3.org/2000/svg" xmlns:xlink="http://www.w3.org/1999/xlink" version="1.1" id="Capa_1" x="0px" y="0px" viewBox="0 0 479.978 479.978" style="enable-background:new 0 0 479.978 479.978;" xml:space="preserve" width="512px" height="512px">
<g>
	<g>
		<path d="M266.345,63.978c-57.438,0-104,46.562-104,104s46.562,104,104,104s104-46.562,104-104    C370.279,110.568,323.755,64.045,266.345,63.978z M266.345,255.978c-48.601,0-88-39.399-88-88s39.399-88,88-88s88,39.399,88,88    C354.288,216.556,314.922,255.921,266.345,255.978z" fill="#FFFFFF"/>
	</g>
</g>
<g>
	<g>
		<polygon points="274.345,159.978 274.345,103.978 258.345,103.978 258.345,159.978 202.345,159.978 202.345,175.978     258.345,175.978 258.345,231.978 274.345,231.978 274.345,175.978 330.345,175.978 330.345,159.978   " fill="#FFFFFF"/>
	</g>
</g>
<g>
	<g>
		<path d="M407.769,58.554h-0.016c-78.118-78.091-204.751-78.07-282.843,0.048C93.979,89.545,74.047,129.776,68.169,173.13    L14.345,292.69c-1.816,4.028-0.023,8.765,4.005,10.581c1.03,0.464,2.146,0.705,3.275,0.707h44.72v88c0,4.418,3.582,8,8,8h88v72    c0,4.418,3.582,8,8,8h192c4.418,0,8-3.582,8-8V370.714c13.616-8.226,26.182-18.074,37.424-29.328    C485.867,263.283,485.867,136.658,407.769,58.554z M396.449,330.082c-11.353,11.348-24.167,21.132-38.104,29.096    c-2.48,1.432-4.006,4.08-4,6.944v97.856h-176v-72c0-4.418-3.582-8-8-8h-88v-88c0-4.418-3.582-8-8-8H34.001l49.24-109.352    c0.323-0.722,0.539-1.487,0.64-2.272C96.915,75.573,189.181,4.441,289.962,17.475c100.781,13.034,171.914,105.3,158.88,206.081    C443.626,263.878,425.203,301.337,396.449,330.082z" fill="#FFFFFF"/>
	</g>
</g>
<g>
</g>
<g>
</g>
<g>
</g>
<g>
</g>
<g>
</g>
<g>
</g>
<g>
</g>
<g>
</g>
<g>
</g>
<g>
</g>
<g>
</g>
<g>
</g>
<g>
</g>
<g>
</g>
<g>
</g>
</svg>
