<?xml version="1.0" encoding="iso-8859-1"?>
<!-- Generator: Adobe Illustrator 19.0.0, SVG Export Plug-In . SVG Version: 6.00 Build 0)  -->
<svg version="1.1" id="Capa_1" xmlns="http://www.w3.org/2000/svg" xmlns:xlink="http://www.w3.org/1999/xlink" x="0px" y="0px"
	 viewBox="0 0 512.001 512.001" style="enable-background:new 0 0 512.001 512.001;" xml:space="preserve">
<path style="fill:#D8D7DA;" d="M266.218,42.574v32.101c0,4.316-3.503,7.819-7.819,7.819c-4.316,0-7.819-3.503-7.819-7.819V42.574
	c0-4.316,3.503-7.819,7.819-7.819C262.715,34.755,266.218,38.258,266.218,42.574z"/>
<path style="fill:#FFA6B7;" d="M281.029,170.84V83.012c0-4.606-3.734-8.341-8.341-8.341h-33.376c-4.606,0-8.341,3.734-8.341,8.341
	v87.828L281.029,170.84L281.029,170.84z"/>
<rect x="230.971" y="119.04" style="fill:#FC819C;" width="50.06" height="51.801"/>
<path style="fill:#FFC988;" d="M267.665,4.264c-2.955-5.269-10.355-5.753-13.96-0.905c-13.108,17.626-34.664,53.582,7.622,53.582
	C293.113,56.941,277.717,22.185,267.665,4.264z"/>
<path style="fill:#D8D7DA;" d="M177.934,42.574v32.101c0,4.316-3.493,7.819-7.819,7.819c-4.316,0-7.819-3.503-7.819-7.819V42.574
	c0-4.316,3.503-7.819,7.819-7.819C174.441,34.755,177.934,38.258,177.934,42.574z"/>
<path style="fill:#FFA6B7;" d="M192.752,170.84V83.012c0-4.606-3.734-8.341-8.341-8.341h-33.376c-4.606,0-8.341,3.734-8.341,8.341
	v87.828L192.752,170.84L192.752,170.84z"/>
<rect x="142.691" y="119.04" style="fill:#FC819C;" width="50.06" height="51.801"/>
<path style="fill:#FFC988;" d="M179.388,4.264c-2.955-5.269-10.355-5.753-13.96-0.905c-13.108,17.626-34.664,53.582,7.622,53.582
	C204.836,56.941,189.44,22.185,179.388,4.264z"/>
<path style="fill:#D8D7DA;" d="M354.492,42.574v32.101c0,4.316-3.503,7.819-7.819,7.819s-7.819-3.503-7.819-7.819V42.574
	c0-4.316,3.503-7.819,7.819-7.819S354.492,38.258,354.492,42.574z"/>
<path style="fill:#FFA6B7;" d="M369.306,170.84V83.012c0-4.606-3.734-8.341-8.341-8.341h-33.376c-4.606,0-8.341,3.734-8.341,8.341
	v87.828L369.306,170.84L369.306,170.84z"/>
<rect x="319.251" y="119.04" style="fill:#FC819C;" width="50.06" height="51.801"/>
<path style="fill:#FFC988;" d="M355.942,4.264c-2.955-5.269-10.355-5.753-13.96-0.905c-13.108,17.626-34.664,53.582,7.622,53.582
	C381.39,56.941,365.994,22.185,355.942,4.264z"/>
<rect x="83.111" y="165.07" style="fill:#FFDAA7;" width="345.78" height="149"/>
<path style="fill:#FFC988;" d="M428.891,165.069v85.441c-5.184,2.092-10.849,3.24-16.773,3.24h-7.757
	c-24.873,0-45.109-20.236-45.109-45.109v-7.665c0-0.685-0.555-1.24-1.25-1.24c-0.685,0-1.24,0.555-1.24,1.24v7.665
	c0,24.873-20.236,45.109-45.109,45.109h-9.544c-24.873,0-45.109-20.236-45.109-45.109v-7.665c0-0.685-0.565-1.24-1.25-1.24h-4.915
	c-0.685,0-1.24,0.555-1.24,1.24v6.85c0,24.873-20.236,45.109-45.109,45.109h-6.813c-24.873,0-45.109-20.236-45.109-45.109v-6.85
	c0-0.685-0.555-1.24-1.24-1.24h-5.091c-0.685,0-1.24,0.555-1.24,1.24v6.85c0,24.873-20.236,45.109-45.109,45.109
	c-5.924,0-11.59-1.148-16.773-3.24v-84.626L428.891,165.069L428.891,165.069z"/>
<rect x="83.111" y="264.4" style="fill:#FFA6B7;" width="345.78" height="23.514"/>
<path style="fill:#B75B16;" d="M71.436,155.497v52.334c0,15.714,12.741,28.451,28.455,28.445l0,0
	c15.706-0.005,28.436-12.739,28.436-28.445v-6.85c0-9.891,8.018-17.909,17.909-17.909h5.085c9.891,0,17.909,8.018,17.909,17.909
	v6.85c0,15.71,12.735,28.445,28.445,28.445h6.81c15.71,0,28.445-12.735,28.445-28.445v-6.85c0-9.891,8.018-17.909,17.909-17.909
	h4.913c9.891,0,17.909,8.018,17.909,17.909v7.66c0,15.71,12.735,28.445,28.445,28.445h9.546c15.71,0,28.445-12.735,28.445-28.445
	v-7.66c0-9.891,8.018-17.909,17.909-17.909l0,0c9.891,0,17.909,8.018,17.909,17.909v7.66c0,15.71,12.735,28.445,28.445,28.445h7.761
	c15.71,0,28.445-12.735,28.445-28.445v-53.144c0-6.257-5.072-11.329-11.329-11.329H82.766
	C76.509,144.168,71.436,149.24,71.436,155.497z"/>
<path style="fill:#FFDAA7;" d="M460.939,335.383V503.66c0,4.606-3.734,8.341-8.341,8.341H59.403c-4.606,0-8.341-3.734-8.341-8.341
	V335.383H460.939z"/>
<path style="fill:#FFC988;" d="M460.939,335.383v101.279c-6.145,2.48-12.86,3.84-19.883,3.84h-9.195
	c-29.484,0-53.47-23.987-53.47-53.47v-9.085c0-0.812-0.658-1.47-1.481-1.47c-0.812,0-1.47,0.658-1.47,1.47v9.085
	c0,29.484-23.986,53.47-53.47,53.47h-11.313c-29.484,0-53.47-23.987-53.47-53.47v-9.085c0-0.812-0.669-1.47-1.481-1.47h-5.827
	c-0.812,0-1.47,0.658-1.47,1.47v8.12c0,29.484-23.986,53.47-53.47,53.47h-8.076c-29.484,0-53.47-23.987-53.47-53.47v-8.12
	c0-0.812-0.658-1.47-1.47-1.47h-6.035c-0.812,0-1.47,0.658-1.47,1.47v8.12c0,29.484-23.986,53.47-53.47,53.47
	c-7.023,0-13.738-1.361-19.883-3.84V335.383H460.939z"/>
<rect x="51.061" y="457.02" style="fill:#FFA6B7;" width="409.88" height="27.873"/>
<path style="fill:#B75B16;" d="M37.225,324.036v62.035c0,18.626,15.103,33.724,33.729,33.718l0,0
	c18.618-0.006,33.707-15.101,33.707-33.718v-8.12c0-11.724,9.504-21.228,21.228-21.228h6.027c11.724,0,21.228,9.504,21.228,21.228
	v8.12c0,18.622,15.096,33.718,33.718,33.718h8.072c18.622,0,33.718-15.096,33.718-33.718v-8.12c0-11.724,9.504-21.228,21.228-21.228
	h5.824c11.724,0,21.228,9.504,21.228,21.228v9.08c0,18.622,15.096,33.718,33.718,33.718h11.316
	c18.622,0,33.718-15.096,33.718-33.718v-9.08c0-11.724,9.504-21.228,21.228-21.228l0,0c11.724,0,21.228,9.504,21.228,21.228v9.08
	c0,18.622,15.096,33.718,33.718,33.718h9.2c18.622,0,33.718-15.096,33.718-33.718v-62.995c0-7.417-6.013-13.429-13.429-13.429
	H50.654C43.237,310.607,37.225,316.619,37.225,324.036z"/>
<g>
	<path style="fill:#9B470D;" d="M305.93,202.642h-1.659c-4.318,0-7.819-3.5-7.819-7.819s3.501-7.819,7.819-7.819h1.659
		c4.318,0,7.819,3.5,7.819,7.819S310.248,202.642,305.93,202.642z"/>
	<path style="fill:#9B470D;" d="M412.729,180.552h-1.658c-4.318,0-7.819-3.5-7.819-7.819s3.501-7.819,7.819-7.819h1.658
		c4.318,0,7.819,3.5,7.819,7.819S417.047,180.552,412.729,180.552z"/>
	<path style="fill:#9B470D;" d="M181.033,347.174h-1.659c-4.318,0-7.819-3.5-7.819-7.819s3.501-7.819,7.819-7.819h1.659
		c4.318,0,7.819,3.5,7.819,7.819S185.351,347.174,181.033,347.174z"/>
	<path style="fill:#9B470D;" d="M193.583,368.614h-1.659c-4.318,0-7.819-3.5-7.819-7.819s3.501-7.819,7.819-7.819h1.659
		c4.318,0,7.819,3.5,7.819,7.819S197.901,368.614,193.583,368.614z"/>
</g>
<g>
	<path style="fill:#FFB64D;" d="M265.801,54.24v13.47c-1.43,0.21-2.99,0.31-4.69,0.31c-4.01,0-7.43-0.34-10.31-0.97V54.24
		c0-4.14,3.36-7.5,7.5-7.5C262.441,46.74,265.801,50.1,265.801,54.24z"/>
	<path style="fill:#FFB64D;" d="M181.121,54.24v13.48c-1.43,0.2-2.98,0.3-4.68,0.3c-4.02,0-7.44-0.34-10.32-0.97V54.24
		c0-4.14,3.36-7.5,7.5-7.5C177.771,46.74,181.121,50.1,181.121,54.24z"/>
	<path style="fill:#FFB64D;" d="M350.471,54.24v13.47c-1.43,0.21-2.99,0.31-4.69,0.31c-4.01,0-7.43-0.34-10.31-0.97V54.24
		c0-4.14,3.36-7.5,7.5-7.5C347.111,46.74,350.471,50.1,350.471,54.24z"/>
</g>
<g>
</g>
<g>
</g>
<g>
</g>
<g>
</g>
<g>
</g>
<g>
</g>
<g>
</g>
<g>
</g>
<g>
</g>
<g>
</g>
<g>
</g>
<g>
</g>
<g>
</g>
<g>
</g>
<g>
</g>
</svg>
