<?xml version="1.0" encoding="iso-8859-1"?>
<!-- Generator: Adobe Illustrator 19.0.0, SVG Export Plug-In . SVG Version: 6.00 Build 0)  -->
<svg xmlns="http://www.w3.org/2000/svg" xmlns:xlink="http://www.w3.org/1999/xlink" version="1.1" id="Capa_1" x="0px" y="0px" viewBox="0 0 480.192 480.192" style="enable-background:new 0 0 480.192 480.192;" xml:space="preserve" width="512px" height="512px">
<g>
	<g>
		<g>
			<path d="M479.615,327.199c-2.89-12.936-15.719-21.08-28.655-18.191c-117.888,26.536-197.304,43.072-208.944,43.52l-61.168-24     l8.304-22.192l67.504,25.296c0.002,0.001,0.004,0.002,0.006,0.002c12.417,4.639,26.243-1.666,30.882-14.082l10.232-27.36     c1.548-4.138-0.55-8.747-4.688-10.296l-110.48-41.352c-12.704-4.808-30.104-11.4-43.8-5.136l-55.76,23.024L8.24,255.968H8.192     c-4.418,0-8,3.582-8,8L0,367.32c0.004,2.151,0.868,4.211,2.4,5.72c1.558,1.466,3.613,2.286,5.752,2.296     c51.88-0.872,110.728-0.912,117.352,0.624l111.856,39.96c0.792,0.305,1.64,0.439,2.488,0.392c7.48,0,39.424-5.48,221.504-45.344     c11.041-2.356,18.91-12.142,18.84-23.432v-15.104C480.192,330.672,479.999,328.917,479.615,327.199z M464.192,347.56     c0.035,3.76-2.58,7.026-6.256,7.816c-120.56,26.392-204.448,43.856-216.384,45.056l-110.528-39.48     c-19.167-2.2-38.472-2.949-57.752-2.24v-0.008c-19.144,0-39.912,0.232-57.224,0.528l0.144-87.2l68.408,0.4     c1.067,0.035,2.129-0.173,3.104-0.608l57.504-23.752c7.896-3.6,21.704,1.624,31.784,5.432l102.976,38.56l-7.432,19.872     c-1.552,4.134-6.161,6.229-10.296,4.68l-67.512-25.264c-8.275-3.091-17.49,1.11-20.584,9.384l-8.304,22.184     c-3.026,8.182,1.034,17.282,9.144,20.496l62.4,24.512c3.456,1.304,9.208,3.496,217.088-43.312     c2.356-0.568,4.841,0.003,6.712,1.544c1.907,1.523,3.014,3.832,3.008,6.272V347.56z" fill="#FFFFFF"/>
			<path d="M331.336,269.288c1.5,1.5,3.534,2.344,5.656,2.344c2.122,0,4.156-0.844,5.656-2.344l96.16-96.16     c24.994-24.994,24.994-65.518,0-90.512c-24.994-24.994-65.518-24.994-90.512,0L336.992,93.92l-11.304-11.304     c-24.994-24.994-65.518-24.994-90.512,0c-24.994,24.994-24.994,65.518,0,90.512L331.336,269.288z M280.432,79.872     c12.74-0.037,24.964,5.028,33.944,14.064l16.96,16.952c3.124,3.123,8.188,3.123,11.312,0l16.936-16.936     c18.74-18.753,49.135-18.764,67.888-0.024c18.753,18.74,18.764,49.135,0.024,67.888l-90.504,90.504l-90.504-90.504     c-9.005-9.003-14.063-21.216-14.062-33.95C232.429,101.357,253.922,79.869,280.432,79.872z" fill="#FFFFFF"/>
		</g>
	</g>
</g>
<g>
</g>
<g>
</g>
<g>
</g>
<g>
</g>
<g>
</g>
<g>
</g>
<g>
</g>
<g>
</g>
<g>
</g>
<g>
</g>
<g>
</g>
<g>
</g>
<g>
</g>
<g>
</g>
<g>
</g>
</svg>
