<?xml version="1.0" encoding="iso-8859-1"?>
<!-- Generator: Adobe Illustrator 19.0.0, SVG Export Plug-In . SVG Version: 6.00 Build 0)  -->
<svg xmlns="http://www.w3.org/2000/svg" xmlns:xlink="http://www.w3.org/1999/xlink" version="1.1" id="Capa_1" x="0px" y="0px" viewBox="0 0 480 480" style="enable-background:new 0 0 480 480;" xml:space="preserve" width="512px" height="512px">
<g>
	<g>
		<g>
			<polygon points="271.6,195.712 260.288,184.4 232,212.688 215.024,195.712 203.712,207.024 232,235.312    " fill="#FFFFFF"/>
			<path d="M136,320h32c4.418,0,8-3.582,8-8s-3.582-8-8-8h-32c-4.418,0-8,3.582-8,8S131.582,320,136,320z" fill="#FFFFFF"/>
			<path d="M192,312c0,4.418,3.582,8,8,8h144c4.418,0,8-3.582,8-8s-3.582-8-8-8H200C195.582,304,192,307.582,192,312z" fill="#FFFFFF"/>
			<path d="M168,336h-32c-4.418,0-8,3.582-8,8s3.582,8,8,8h32c4.418,0,8-3.582,8-8S172.418,336,168,336z" fill="#FFFFFF"/>
			<path d="M344,336H200c-4.418,0-8,3.582-8,8s3.582,8,8,8h144c4.418,0,8-3.582,8-8S348.418,336,344,336z" fill="#FFFFFF"/>
			<path d="M168,368h-32c-4.418,0-8,3.582-8,8s3.582,8,8,8h32c4.418,0,8-3.582,8-8S172.418,368,168,368z" fill="#FFFFFF"/>
			<path d="M344,368H200c-4.418,0-8,3.582-8,8s3.582,8,8,8h144c4.418,0,8-3.582,8-8S348.418,368,344,368z" fill="#FFFFFF"/>
			<path d="M240,272c35.346,0,64-28.654,64-64c0-35.346-28.654-64-64-64c-35.346,0-64,28.654-64,64     C176.04,243.33,204.67,271.96,240,272z M240,160c26.51,0,48,21.49,48,48c0,26.51-21.49,48-48,48c-26.51,0-48-21.49-48-48     C192.027,181.501,213.501,160.026,240,160z" fill="#FFFFFF"/>
			<path d="M424,48h-73.472C347.15,38.445,338.134,32.042,328,32h-40.8C283.418,13.361,267.019-0.026,248,0h-16     c-19.002,0.021-35.375,13.387-39.2,32H152c-10.134,0.042-19.15,6.445-22.528,16H56c-4.418,0-8,3.582-8,8v416c0,4.418,3.582,8,8,8     h368c4.418,0,8-3.582,8-8V56C432,51.582,428.418,48,424,48z M144,56c0-4.418,3.582-8,8-8h48c4.418,0,8-3.582,8-8     c0-13.255,10.745-24,24-24h16c13.228-0.027,23.973,10.676,24,23.904c0,0.032,0,0.064,0,0.096c0,4.418,3.582,8,8,8h48     c4.418,0,8,3.582,8,8v40H144V56z M136,112h208c4.418,0,8-3.582,8-8v-8h32v336H96V96h32v8C128,108.418,131.582,112,136,112z      M416,464H64V64h64v16H88c-4.418,0-8,3.582-8,8v352c0,4.418,3.582,8,8,8h304c4.418,0,8-3.582,8-8V88c0-4.418-3.582-8-8-8h-40V64     h64V464z" fill="#FFFFFF"/>
			<path d="M240,40c-13.255,0-24,10.745-24,24s10.745,24,24,24s24-10.745,24-24S253.255,40,240,40z M240,72c-4.418,0-8-3.582-8-8     s3.582-8,8-8s8,3.582,8,8S244.418,72,240,72z" fill="#FFFFFF"/>
		</g>
	</g>
</g>
<g>
</g>
<g>
</g>
<g>
</g>
<g>
</g>
<g>
</g>
<g>
</g>
<g>
</g>
<g>
</g>
<g>
</g>
<g>
</g>
<g>
</g>
<g>
</g>
<g>
</g>
<g>
</g>
<g>
</g>
</svg>
