<?xml version="1.0" encoding="iso-8859-1"?>
<!-- Generator: Adobe Illustrator 19.0.0, SVG Export Plug-In . SVG Version: 6.00 Build 0)  -->
<svg version="1.1" id="Layer_1" xmlns="http://www.w3.org/2000/svg" xmlns:xlink="http://www.w3.org/1999/xlink" x="0px" y="0px"
	 viewBox="0 0 512 512" style="enable-background:new 0 0 512 512;" xml:space="preserve">
<g>
	<g>
		<path d="M178.087,2.783C150.468,2.783,128,25.251,128,52.87c0,27.619,22.468,50.087,50.087,50.087
			c27.619,0,50.087-22.468,50.087-50.087C228.174,25.251,205.706,2.783,178.087,2.783z"/>
	</g>
</g>
<g>
	<g>
		<path d="M495.304,253.217c-39.239,0-74.011,0-111.304,0v33.391c23.788,0,52.607,0,61.217,0v205.913
			c0,9.223,7.473,16.696,16.696,16.696c9.223,0,16.696-7.473,16.696-16.696V286.609h16.696c9.217,0,16.696-7.473,16.696-16.696
			C512,260.69,504.521,253.217,495.304,253.217z"/>
	</g>
</g>
<g>
	<g>
		<path d="M349.844,253.217c-7.556-86.004-71.393-150.229-99.36-150.229c-25.143,0-31.949,21.929-43.125,44.582
			c-6.461,13.099-11.104,22.48-17.755,35.782l-62.952,62.951c-2.098,2.098-3.732,4.459-5.154,6.913H16.696
			C7.473,253.217,0,260.69,0,269.913c0,9.223,7.473,16.696,16.696,16.696h16.696v205.913c0,9.223,7.473,16.696,16.696,16.696
			s16.696-7.473,16.696-16.696V286.609h54.715c8.563,14.778,30.746,28.371,59.337,0h102.991v189.217
			c0,18.413,14.978,33.391,33.391,33.391s33.391-14.978,33.391-33.391V334.47v-47.861
			C350.609,286.609,350.101,253.217,349.844,253.217z M214.29,253.216c15.421-15.52,29.689-30.138,31.21-32.619l17.924-29.283
			c9.855,26.515,16.777,42.43,19.298,61.902H214.29z"/>
	</g>
</g>
<g>
</g>
<g>
</g>
<g>
</g>
<g>
</g>
<g>
</g>
<g>
</g>
<g>
</g>
<g>
</g>
<g>
</g>
<g>
</g>
<g>
</g>
<g>
</g>
<g>
</g>
<g>
</g>
<g>
</g>
</svg>
