<?xml version="1.0" encoding="iso-8859-1"?>
<!-- Generator: Adobe Illustrator 19.0.0, SVG Export Plug-In . SVG Version: 6.00 Build 0)  -->
<svg version="1.1" id="Layer_1" xmlns="http://www.w3.org/2000/svg" xmlns:xlink="http://www.w3.org/1999/xlink" x="0px" y="0px"
	 viewBox="0 0 512 512" style="enable-background:new 0 0 512 512;" xml:space="preserve">
<polygon style="fill:#FD7052;" points="511.803,512 414.652,512 414.652,443.598 408.168,443.598 398.965,443.584 0.254,443.2 
	39.873,422.754 124.071,379.282 133.444,374.455 165.185,374.455 392.919,374.47 511.803,374.47 "/>
<polygon style="fill:#FF4F18;" points="511.803,512 133.43,512 123.832,507.049 39.873,463.729 0.197,443.241 0.254,443.2 
	398.965,443.584 408.168,443.598 414.652,443.598 430.353,443.611 450.452,443.625 511.803,443.68 "/>
<rect x="414.653" y="374.466" style="fill:#67BFFF;" width="97.148" height="137.533"/>
<polygon style="fill:#0088FF;" points="511.803,512 414.652,512 414.652,443.598 430.353,443.611 450.452,443.625 511.803,443.68 
	"/>
<polygon style="fill:#FFDBA8;" points="133.438,511.999 133.428,511.999 123.825,507.053 39.876,463.724 0.198,443.236 
	0.25,443.205 39.876,422.747 124.076,379.286 133.438,374.462 "/>
<polygon style="fill:#FFC473;" points="133.438,511.999 133.428,511.999 123.825,507.053 39.876,463.724 0.198,443.236 
	0.25,443.205 133.438,443.328 "/>
<rect x="408.352" y="374.466" style="fill:#FFFFFF;" width="32.727" height="137.533"/>
<polygon style="fill:#57555C;" points="39.872,463.719 0.197,443.236 0.246,443.208 39.872,422.751 "/>
<polygon style="fill:#3C3A41;" points="39.872,443.245 39.872,463.719 0.197,443.236 0.246,443.208 "/>
<polygon style="fill:#D9D8DB;" points="441.081,512 408.354,512 408.354,443.707 413.372,443.707 423.583,443.721 441.081,443.748 
	"/>
<polygon style="fill:#AEADB3;" points="511.803,105.995 511.803,343.231 0.608,343.231 0.608,0 405.235,0 511.782,105.974 "/>
<polygon style="fill:#8B8892;" points="511.803,105.995 511.803,343.231 256.341,343.231 256.341,0 405.235,0 511.782,105.974 "/>
<polygon style="fill:#57555C;" points="511.782,105.974 405.235,105.974 405.235,0 "/>
<g>
	<polygon style="fill:#FFFFFF;" points="447.466,190.509 447.466,221.807 128.928,221.807 128.928,287.939 97.631,287.939 
		97.631,221.807 61.117,221.807 61.117,190.509 97.631,190.509 97.631,119.276 61.117,119.276 61.117,87.978 97.631,87.978 
		97.631,59.466 128.928,59.466 128.928,87.978 348.012,87.978 348.012,119.276 128.928,119.276 128.928,190.509 	"/>
	<rect x="351.839" y="251.425" style="fill:#FFFFFF;" width="95.625" height="31.298"/>
</g>
<g>
	<rect x="256.339" y="87.978" style="fill:#D9D8DB;" width="91.671" height="31.298"/>
	<rect x="256.339" y="190.509" style="fill:#D9D8DB;" width="191.125" height="31.298"/>
	<rect x="351.839" y="251.425" style="fill:#D9D8DB;" width="95.625" height="31.298"/>
</g>
<g>
</g>
<g>
</g>
<g>
</g>
<g>
</g>
<g>
</g>
<g>
</g>
<g>
</g>
<g>
</g>
<g>
</g>
<g>
</g>
<g>
</g>
<g>
</g>
<g>
</g>
<g>
</g>
<g>
</g>
</svg>
